<svg width="179" height="203" viewBox="0 0 179 203" fill="none" xmlns="http://www.w3.org/2000/svg"><rect width="100" height="100" rx="13" transform="matrix(0.866025 -0.5 2.20305e-08 1 92 103)" fill="#A7A7A7"></rect><rect width="100" height="100" rx="13" transform="matrix(0.866025 0.5 -0.866025 0.5 88.6025 -3)" fill="#FFFBFB"></rect><rect width="100" height="100" rx="13" transform="matrix(0.866025 0.5 -2.20305e-08 1 0.000152588 53)" fill="white"></rect><rect width="72.7816" height="72.7816" rx="13" transform="matrix(0.866025 0.5 -2.20305e-08 1 11 73)" fill="#DDDDDD"></rect><rect width="28.1436" height="28.1436" rx="3" transform="matrix(0.866025 0.5 -2.20305e-08 1 11.0002 86)" fill="#141414" fill-opacity="0.8"></rect><rect width="28.1436" height="28.1436" rx="3" transform="matrix(0.866025 0.5 -2.20305e-08 1 50.0001 107)" fill="#141414" fill-opacity="0.8"></rect><rect width="13.8564" height="13.8564" rx="3" transform="matrix(0.866025 0.5 -2.20305e-08 1 43.0001 148)" fill="#141414" fill-opacity="0.8"></rect></svg>